<svg width="36" height="36" viewBox="0 0 36 36" fill="none" xmlns="http://www.w3.org/2000/svg">
<path d="M16.8749 12.12V16.41L15.3599 15.885C14.5949 15.615 14.1299 15.36 14.1299 14.055C14.1299 12.99 14.9249 12.12 15.8999 12.12H16.8749Z" fill="black"/>
<path d="M21.87 21.945C21.87 23.01 21.075 23.88 20.1 23.88H19.125V19.59L20.64 20.115C21.405 20.385 21.87 20.64 21.87 21.945Z" fill="black"/>
<path d="M24.285 3H11.715C6.255 3 3 6.255 3 11.715V24.285C3 29.745 6.255 33 11.715 33H24.285C29.745 33 33 29.745 33 24.285V11.715C33 6.255 29.745 3 24.285 3ZM21.39 18C22.56 18.405 24.12 19.26 24.12 21.945C24.12 24.255 22.32 26.13 20.1 26.13H19.125V27C19.125 27.615 18.615 28.125 18 28.125C17.385 28.125 16.875 27.615 16.875 27V26.13H16.335C13.875 26.13 11.88 24.045 11.88 21.495C11.88 20.88 12.375 20.37 13.005 20.37C13.62 20.37 14.13 20.88 14.13 21.495C14.13 22.815 15.12 23.88 16.335 23.88H16.875V18.795L14.61 18C13.44 17.595 11.88 16.74 11.88 14.055C11.88 11.745 13.68 9.87 15.9 9.87H16.875V9C16.875 8.385 17.385 7.875 18 7.875C18.615 7.875 19.125 8.385 19.125 9V9.87H19.665C22.125 9.87 24.12 11.955 24.12 14.505C24.12 15.12 23.625 15.63 22.995 15.63C22.38 15.63 21.87 15.12 21.87 14.505C21.87 13.185 20.88 12.12 19.665 12.12H19.125V17.205L21.39 18Z" fill="black"/>
</svg>
