<svg width="30" height="30" viewBox="0 0 30 30" fill="none" xmlns="http://www.w3.org/2000/svg">
<path d="M15 13.5C14.7033 13.5 14.4133 13.588 14.1667 13.7528C13.92 13.9176 13.7277 14.1519 13.6142 14.426C13.5007 14.7001 13.471 15.0017 13.5288 15.2926C13.5867 15.5836 13.7296 15.8509 13.9393 16.0607C14.1491 16.2704 14.4164 16.4133 14.7074 16.4712C14.9983 16.5291 15.2999 16.4994 15.574 16.3858C15.8481 16.2723 16.0824 16.08 16.2472 15.8334C16.412 15.5867 16.5 15.2967 16.5 15C16.5 14.6022 16.342 14.2206 16.0607 13.9393C15.7794 13.658 15.3978 13.5 15 13.5ZM15 0C12.0333 0 9.13319 0.879735 6.66645 2.52796C4.19972 4.17618 2.27713 6.51886 1.14181 9.25975C0.00649926 12.0006 -0.290551 15.0166 0.288228 17.9264C0.867006 20.8361 2.29562 23.5088 4.39341 25.6066C6.49119 27.7044 9.16394 29.133 12.0737 29.7118C14.9834 30.2906 17.9994 29.9935 20.7403 28.8582C23.4812 27.7229 25.8238 25.8003 27.4721 23.3336C29.1203 20.8668 30 17.9667 30 15C30 13.0302 29.612 11.0796 28.8582 9.25975C28.1044 7.43986 26.9995 5.78628 25.6066 4.3934C24.2137 3.00052 22.5601 1.89563 20.7403 1.14181C18.9204 0.387987 16.9698 0 15 0V0ZM16.5 26.895V22.5C16.5 22.1022 16.342 21.7206 16.0607 21.4393C15.7794 21.158 15.3978 21 15 21C14.6022 21 14.2207 21.158 13.9393 21.4393C13.658 21.7206 13.5 22.1022 13.5 22.5V26.895C10.86 26.5602 8.40612 25.3574 6.52439 23.4756C4.64265 21.5939 3.4398 19.14 3.10501 16.5H7.50001C7.89783 16.5 8.27936 16.342 8.56067 16.0607C8.84197 15.7794 9.00001 15.3978 9.00001 15C9.00001 14.6022 8.84197 14.2206 8.56067 13.9393C8.27936 13.658 7.89783 13.5 7.50001 13.5H3.10501C3.4398 10.86 4.64265 8.40611 6.52439 6.52438C8.40612 4.64264 10.86 3.43979 13.5 3.105V7.5C13.5 7.89782 13.658 8.27936 13.9393 8.56066C14.2207 8.84196 14.6022 9 15 9C15.3978 9 15.7794 8.84196 16.0607 8.56066C16.342 8.27936 16.5 7.89782 16.5 7.5V3.105C19.14 3.43979 21.5939 4.64264 23.4756 6.52438C25.3574 8.40611 26.5602 10.86 26.895 13.5H22.5C22.1022 13.5 21.7207 13.658 21.4393 13.9393C21.158 14.2206 21 14.6022 21 15C21 15.3978 21.158 15.7794 21.4393 16.0607C21.7207 16.342 22.1022 16.5 22.5 16.5H26.895C26.5602 19.14 25.3574 21.5939 23.4756 23.4756C21.5939 25.3574 19.14 26.5602 16.5 26.895Z" fill="black"/>
</svg>
