<svg width="36" height="36" viewBox="0 0 36 36" fill="none" xmlns="http://www.w3.org/2000/svg">
<path d="M22.275 5.92501V11.625H20.025V5.92501C20.025 5.52001 19.665 5.32501 19.425 5.32501C19.35 5.32501 19.275 5.34001 19.2 5.37001L7.305 9.85501C6.51 10.155 6 10.905 6 11.76V12.765C4.635 13.785 3.75 15.42 3.75 17.265V11.76C3.75 9.97501 4.845 8.38501 6.51 7.75501L18.42 3.25501C18.75 3.13501 19.095 3.07501 19.425 3.07501C20.925 3.07501 22.275 4.29001 22.275 5.92501Z" fill="black"/>
<path d="M32.25 21.75V23.25C32.25 23.655 31.935 23.985 31.515 24H29.325C28.53 24 27.81 23.415 27.75 22.635C27.705 22.17 27.885 21.735 28.185 21.435C28.455 21.15 28.83 21 29.235 21H31.5C31.935 21.015 32.25 21.345 32.25 21.75Z" fill="black"/>
<path d="M29.22 19.425H30.75C31.575 19.425 32.25 18.75 32.25 17.925V17.265C32.25 14.16 29.715 11.625 26.61 11.625H9.39C8.115 11.625 6.945 12.045 6 12.765C4.635 13.785 3.75 15.42 3.75 17.265V27.36C3.75 30.465 6.285 33 9.39 33H26.61C29.715 33 32.25 30.465 32.25 27.36V27.075C32.25 26.25 31.575 25.575 30.75 25.575H29.445C28.005 25.575 26.625 24.69 26.25 23.295C25.935 22.155 26.31 21.06 27.06 20.325C27.615 19.755 28.38 19.425 29.22 19.425ZM21 19.125H10.5C9.885 19.125 9.375 18.615 9.375 18C9.375 17.385 9.885 16.875 10.5 16.875H21C21.615 16.875 22.125 17.385 22.125 18C22.125 18.615 21.615 19.125 21 19.125Z" fill="black"/>
</svg>
