<svg width="38" height="38" viewBox="0 0 38 38" fill="none" xmlns="http://www.w3.org/2000/svg">
<path d="M34.2633 20.5833C34.0347 20.3944 33.7577 20.2734 33.4638 20.2342C33.1699 20.1951 32.8709 20.2392 32.6008 20.3616C30.9266 21.1278 29.1062 21.5221 27.265 21.5175C23.859 21.5133 20.5928 20.1628 18.1784 17.7604C15.7641 15.3579 14.3975 12.0984 14.3766 8.69245C14.3839 7.62502 14.5167 6.56215 14.7725 5.52579C14.8267 5.24956 14.8064 4.96385 14.7135 4.69811C14.6206 4.43236 14.4586 4.19619 14.244 4.01391C14.0295 3.83164 13.7702 3.70986 13.493 3.66112C13.2157 3.61238 12.9305 3.63844 12.6666 3.73662C10.1845 4.85273 8.02679 6.58149 6.39626 8.76051C4.76572 10.9395 3.71586 13.4973 3.34531 16.1935C2.97477 18.8897 3.29569 21.6358 4.27793 24.1739C5.26017 26.712 6.8715 28.9588 8.96053 30.7031C11.0496 32.4475 13.5477 33.6321 16.2203 34.1458C18.893 34.6595 21.6523 34.4854 24.2391 33.6398C26.826 32.7942 29.1554 31.3049 31.0086 29.3118C32.8618 27.3187 34.1779 24.8872 34.8333 22.2458C34.9131 21.9434 34.9016 21.6241 34.8002 21.3282C34.6987 21.0323 34.5119 20.7731 34.2633 20.5833ZM19.2216 31.1758C16.5644 31.157 13.978 30.3174 11.8164 28.7719C9.65479 27.2263 8.02377 25.0504 7.14663 22.5421C6.2695 20.0337 6.18912 17.3156 6.91651 14.7598C7.6439 12.204 9.14349 9.93553 11.21 8.26495V8.69245C11.2142 12.9492 12.907 17.0304 15.917 20.0404C18.927 23.0504 23.0082 24.7433 27.265 24.7475C28.3826 24.7516 29.4974 24.6348 30.59 24.3991C29.4973 26.4662 27.861 28.1957 25.8576 29.4011C23.8542 30.6065 21.5597 31.242 19.2216 31.2391V31.1758Z" fill="black"/>
</svg>
