<svg width="38" height="38" viewBox="0 0 38 38" fill="none" xmlns="http://www.w3.org/2000/svg">
<path d="M18.9999 30.4793C12.6666 30.4793 7.52075 25.3335 7.52075 19.0002C7.52075 12.6668 12.6666 7.521 18.9999 7.521C25.3333 7.521 30.4791 12.6668 30.4791 19.0002C30.4791 25.3335 25.3333 30.4793 18.9999 30.4793ZM18.9999 9.896C13.9808 9.896 9.89575 13.981 9.89575 19.0002C9.89575 24.0193 13.9808 28.1043 18.9999 28.1043C24.0191 28.1043 28.1041 24.0193 28.1041 19.0002C28.1041 13.981 24.0191 9.896 18.9999 9.896Z" fill="#171717"/>
<path d="M18.9999 36.3535C18.1291 36.3535 17.4166 35.7043 17.4166 34.8335V34.7068C17.4166 33.836 18.1291 33.1235 18.9999 33.1235C19.8708 33.1235 20.5833 33.836 20.5833 34.7068C20.5833 35.5777 19.8708 36.3535 18.9999 36.3535ZM30.3049 31.8885C29.8933 31.8885 29.4974 31.7302 29.1808 31.4293L28.9749 31.2235C28.3574 30.606 28.3574 29.6085 28.9749 28.991C29.5924 28.3735 30.5899 28.3735 31.2074 28.991L31.4133 29.1968C32.0308 29.8143 32.0308 30.8118 31.4133 31.4293C31.1124 31.7302 30.7166 31.8885 30.3049 31.8885ZM7.69492 31.8885C7.28325 31.8885 6.88742 31.7302 6.57075 31.4293C5.95325 30.8118 5.95325 29.8143 6.57075 29.1968L6.77659 28.991C7.39409 28.3735 8.39159 28.3735 9.00909 28.991C9.62659 29.6085 9.62659 30.606 9.00909 31.2235L8.80325 31.4293C8.50242 31.7302 8.09075 31.8885 7.69492 31.8885ZM34.8333 20.5835H34.7066C33.8358 20.5835 33.1233 19.871 33.1233 19.0002C33.1233 18.1293 33.8358 17.4168 34.7066 17.4168C35.5774 17.4168 36.3533 18.1293 36.3533 19.0002C36.3533 19.871 35.7041 20.5835 34.8333 20.5835ZM3.29325 20.5835H3.16659C2.29575 20.5835 1.58325 19.871 1.58325 19.0002C1.58325 18.1293 2.29575 17.4168 3.16659 17.4168C4.03742 17.4168 4.81325 18.1293 4.81325 19.0002C4.81325 19.871 4.16409 20.5835 3.29325 20.5835ZM30.0991 9.48433C29.6874 9.48433 29.2916 9.326 28.9749 9.02516C28.3574 8.40766 28.3574 7.41016 28.9749 6.79266L29.1808 6.58683C29.7983 5.96933 30.7958 5.96933 31.4133 6.58683C32.0308 7.20433 32.0308 8.20183 31.4133 8.81933L31.2074 9.02516C30.9066 9.326 30.5108 9.48433 30.0991 9.48433ZM7.90075 9.48433C7.48909 9.48433 7.09325 9.326 6.77659 9.02516L6.57075 8.8035C5.95325 8.186 5.95325 7.1885 6.57075 6.571C7.18825 5.9535 8.18575 5.9535 8.80325 6.571L9.00909 6.77683C9.62659 7.39433 9.62659 8.39183 9.00909 9.00933C8.70825 9.326 8.29659 9.48433 7.90075 9.48433ZM18.9999 4.8135C18.1291 4.8135 17.4166 4.16433 17.4166 3.2935V3.16683C17.4166 2.296 18.1291 1.5835 18.9999 1.5835C19.8708 1.5835 20.5833 2.296 20.5833 3.16683C20.5833 4.03766 19.8708 4.8135 18.9999 4.8135Z" fill="#171717"/>
</svg>
