<svg width="38" height="38" viewBox="0 0 38 38" fill="none" xmlns="http://www.w3.org/2000/svg">
<path d="M27.8034 28.4523H10.1967C3.89508 28.4523 1.97925 26.5365 1.97925 20.2348V10.1965C1.97925 3.89484 3.89508 1.979 10.1967 1.979H27.7876C34.0892 1.979 36.0051 3.89484 36.0051 10.1965V20.219C36.0209 26.5365 34.1051 28.4523 27.8034 28.4523ZM10.1967 4.354C5.22508 4.354 4.35425 5.22484 4.35425 10.1965V20.219C4.35425 25.1907 5.22508 26.0615 10.1967 26.0615H27.7876C32.7592 26.0615 33.6301 25.1907 33.6301 20.219V10.1965C33.6301 5.22484 32.7592 4.354 27.7876 4.354H10.1967Z" fill="#171717"/>
<path d="M19 36.021C18.3508 36.021 17.8125 35.4826 17.8125 34.8335V27.2651C17.8125 26.616 18.3508 26.0776 19 26.0776C19.6492 26.0776 20.1875 26.616 20.1875 27.2651V34.8335C20.1875 35.4826 19.6492 36.021 19 36.021Z" fill="#171717"/>
<path d="M34.8334 21.771H3.16675C2.51758 21.771 1.97925 21.2327 1.97925 20.5835C1.97925 19.9343 2.51758 19.396 3.16675 19.396H34.8334C35.4826 19.396 36.0209 19.9343 36.0209 20.5835C36.0209 21.2327 35.4826 21.771 34.8334 21.771Z" fill="#171717"/>
<path d="M26.125 36.021H11.875C11.2258 36.021 10.6875 35.4827 10.6875 34.8335C10.6875 34.1843 11.2258 33.646 11.875 33.646H26.125C26.7742 33.646 27.3125 34.1843 27.3125 34.8335C27.3125 35.4827 26.7742 36.021 26.125 36.021Z" fill="#171717"/>
</svg>
